# xmcd
#
# Track frame offsets:
#	150
#	15285
#	33437
#	48737
#	65083
#	78262
#	94075
#	108258
#	122089
#	137945
#	153333
#	167094
#	183934
#	197391
#	211400
#	223612
#	236208
#	250924
#	265357
#	278563
#
# Disc length: 3928 seconds
#
# Revision: 1
# Processed by: cddbd v1.4PL0 Copyright (c) Steve Scherf et al.
# Submitted via: audiograbber 1.80
#
DISCID=1b0f5614
DTITLE=diverse - Hits På Dansktoppen 4
DYEAR=1900
DGENRE=
TTITLE0=Peter Belli - Svært At Være Ensom
TTITLE1=Natasja Crone - Stjerne For En Aften
TTITLE2=Johnny Hansen - Kom Hjem
TTITLE3=Sweethearts - Hey Baby
TTITLE4=Helge Engelbrecht - Som Om Det Var Igår
TTITLE5=Birthe Kjær - Syv Seje Sild
TTITLE6=Richard Ragnvald - Tre Små Beskedne Ord
TTITLE7=Dorthe Kollo - Her I Vores Hus
TTITLE8=Kim Schwartz - Lykkelig Og Fri
TTITLE9=Peter Vesth - Solen Over Sandvig
TTITLE10=Kandis - Kærligheden Rammer Altid Plet
TTITLE11=Keld and Hilda - Din Kurs Er Sat
TTITLE12=Klaus and Servants - Når Et Hjerte Slår
TTITLE13=Bjørn and Okay - Fest I Haven
TTITLE14=Anne Murillo - Hvis Du Tænker Lidt På Mig
TTITLE15=Kim and Hallo - I Morgen Vil Jeg Ringe
TTITLE16=Skipper and Co - Palma De Mallorca
TTITLE17=Country Lise - Tak Min Ven
TTITLE18=Jan and Sunny Boys - Humørsangen
TTITLE19=Kisser and Søren - Sig Altid Kun På Gensyn
EXTD=
EXTT0=
EXTT1=
EXTT2=
EXTT3=
EXTT4=
EXTT5=
EXTT6=
EXTT7=
EXTT8=
EXTT9=
EXTT10=
EXTT11=
EXTT12=
EXTT13=
EXTT14=
EXTT15=
EXTT16=
EXTT17=
EXTT18=
EXTT19=
PLAYORDER=
